<svg xmlns="http://www.w3.org/2000/svg" viewBox="0 0 500 112" width="500" height="112">
  
  <g transform="translate(1, 0) scale(0.2136)">
    
    <g fill="#fdf8ed" transform="translate(256, 256) scale(0.48) translate(-496, -308)">
      <path d="M 584.72 504.09 C 567.71 482.96 549.09 462.72 531.37 441.99 C 513.40 421.51 495.68 400.51 477.32 380.54 C 461.20 394.12 444.13 407.95 423.93 415.32 C 403.98 423.15 381.51 424.21 361.03 417.77 C 319.40 404.66 290.36 369.91 262.33 338.48 C 234.64 305.94 210.36 270.23 192.64 231.26 C 183.72 211.84 176.44 191.65 171.13 170.93 C 166.94 151.12 157.76 127.35 170.83 109.09 C 182.71 98.17 200.28 102.95 214.21 106.46 C 228.73 110.69 242.66 116.82 255.73 124.44 C 281.49 140.38 305.24 159.38 327.97 179.36 C 373.28 219.67 411.92 266.66 452.78 311.30 C 533.05 401.89 612.40 493.60 690.80 585.63 C 721.94 544.52 752.63 502.45 783.01 460.70 C 684.66 359.99 591.72 253.67 493.69 152.39 C 445.14 101.93 384.18 60.28 314.86 45.53 C 247.32 30.47 166.29 44.07 123.09 102.78 C 79.44 161.14 86.92 239.61 103.29 306.29 C 120.98 374.71 159.77 436.61 210.42 485.54 C 260.48 533.67 321.91 577.93 393.77 581.30 C 465.16 585.22 532.04 549.03 584.72 504.09 Z"/>
      <path d="M 735.31 42.47 C 689.61 102.52 644.31 163.55 599.38 224.29 C 617.22 244.73 636.32 264.44 654.73 284.55 C 663.94 294.61 673.30 304.56 682.51 314.64 C 687.21 319.58 691.72 324.72 696.44 329.63 C 701.17 334.41 705.24 340.31 710.58 344.15 C 715.26 338.57 718.84 331.52 723.08 325.37 C 727.16 319.02 731.29 312.70 735.43 306.39 C 743.69 293.74 752.03 281.12 760.29 268.47 C 776.97 243.26 793.61 218.03 810.38 192.87 C 827.09 167.69 843.97 142.59 860.75 117.46 C 869.18 104.90 877.71 92.45 886.06 79.86 C 890.29 73.62 894.64 67.45 898.77 61.14 C 900.93 58.05 903.04 54.92 905.13 51.77 C 906.24 50.26 907.30 48.68 908.32 47.09 C 908.89 45.71 911.68 43.81 910.26 42.44 C 851.95 42.25 793.63 42.39 735.31 42.47 Z"/>
    </g>
  </g>
  <path transform="translate(145.00, 90) scale(0.09600, -0.09600)" d="M50 0 325 676H355L628 0H593L332 648H347L84 0ZM165 223V252H514V223Z" fill="#fdf8ed"/>
  <path transform="translate(210.09, 90) scale(0.09600, -0.09600)" d="M269 -206Q203 -206 149.0 -181.0Q95 -156 62 -109L81 -90Q108 -129 157.0 -153.0Q206 -177 270 -177Q366 -177 422.5 -124.5Q479 -72 479 17V134L488 242L479 347V460H510V17Q510 -50 480.0 -100.0Q450 -150 395.5 -178.0Q341 -206 269 -206ZM284 0Q217 0 164.5 30.5Q112 61 81.5 114.0Q51 167 51 235Q51 302 81.0 355.0Q111 408 163.5 439.0Q216 470 282 470Q335 470 378.5 450.5Q422 431 451.5 395.0Q481 359 492 309V160Q480 111 450.5 75.0Q421 39 378.5 19.5Q336 0 284 0ZM288 29Q345 29 388.5 54.5Q432 80 456.0 126.5Q480 173 480 235Q480 296 455.5 342.0Q431 388 387.5 414.5Q344 441 286 441Q227 441 181.0 414.5Q135 388 109.0 342.0Q83 296 83 236Q83 176 109.5 129.0Q136 82 182.0 55.5Q228 29 288 29Z" fill="#fdf8ed"/>
  <path transform="translate(266.63, 90) scale(0.09600, -0.09600)" d="M287 -10Q219 -10 165.5 21.5Q112 53 81.0 107.0Q50 161 50 229Q50 297 81.0 351.5Q112 406 165.0 438.0Q218 470 285 470Q338 470 380.5 450.5Q423 431 451.5 395.0Q480 359 491 309V152Q479 102 450.5 65.5Q422 29 380.5 9.5Q339 -10 287 -10ZM291 19Q377 19 428.0 76.5Q479 134 479 229Q479 293 455.5 340.5Q432 388 389.0 414.5Q346 441 289 441Q229 441 182.5 413.5Q136 386 109.0 338.5Q82 291 82 230Q82 169 109.0 121.5Q136 74 183.5 46.5Q231 19 291 19ZM478 0V123L487 237L478 348V460H509V0Z" fill="#fdf8ed"/>
  <path transform="translate(323.18, 90) scale(0.09600, -0.09600)" d="M80 0V460H111V0ZM408 0V290Q408 358 368.0 400.0Q328 442 265 442Q223 442 188.0 423.0Q153 404 132.0 370.5Q111 337 111 292L90 293Q90 346 113.5 386.0Q137 426 177.5 448.0Q218 470 268 470Q317 470 355.5 448.0Q394 426 416.5 386.0Q439 346 439 292V0ZM736 0V290Q736 358 696.0 400.0Q656 442 593 442Q551 442 516.0 423.0Q481 404 460.0 370.5Q439 337 439 292L418 293Q418 347 442.0 386.5Q466 426 506.5 448.0Q547 470 596 470Q645 470 683.5 448.0Q722 426 744.5 385.5Q767 345 767 291V0Z" fill="#fdf8ed"/>
  <path transform="translate(403.53, 90) scale(0.09600, -0.09600)" d="M287 -10Q219 -10 165.5 21.5Q112 53 81.0 107.0Q50 161 50 229Q50 297 81.0 351.5Q112 406 165.0 438.0Q218 470 285 470Q338 470 380.5 450.5Q423 431 451.5 395.0Q480 359 491 309V152Q479 102 450.5 65.5Q422 29 380.5 9.5Q339 -10 287 -10ZM291 19Q377 19 428.0 76.5Q479 134 479 229Q479 293 455.5 340.5Q432 388 389.0 414.5Q346 441 289 441Q229 441 182.5 413.5Q136 386 109.0 338.5Q82 291 82 230Q82 169 109.0 121.5Q136 74 183.5 46.5Q231 19 291 19ZM478 0V123L487 237L478 348V460H509V0Z" fill="#fdf8ed"/>
</svg>
